<svg xmlns="http://www.w3.org/2000/svg" width="18.568" height="24.219" viewBox="1.035 1.891 18.568 24.219"><path d="m17.59 19.203-3.856-1.928a1.062 1.062 0 0 1-.59-.955v-1.365c.092-.113.19-.241.29-.383.5-.707.901-1.493 1.193-2.341.57-.261.939-.824.939-1.46V9.156a1.61 1.61 0 0 0-.404-1.06V5.95c.023-.222.112-1.544-.844-2.634-.83-.946-2.175-1.425-4-1.425-1.824 0-3.17.479-3.999 1.424-.956 1.09-.867 2.413-.844 2.635v2.147a1.61 1.61 0 0 0-.404 1.06v1.614c0 .491.223.95.604 1.255a8.472 8.472 0 0 0 1.414 2.92v1.337c0 .39-.213.749-.556.936l-3.6 1.964a3.64 3.64 0 0 0-1.898 3.198v1.307c0 1.915 6.072 2.421 9.283 2.421 3.212 0 9.284-.506 9.284-2.421v-1.229a3.622 3.622 0 0 0-2.012-3.256Z" fill="#96a0c2" fill-rule="evenodd" data-name="user-svgrepo-com"/></svg>