<svg xmlns="http://www.w3.org/2000/svg" width="20.637" height="20.637" viewBox="0 3.984 20.637 20.637"><path d="M20.637 14.283c.01 5.685-4.626 10.334-10.311 10.338a10.275 10.275 0 0 1-6.483-2.285.998.998 0 0 1-.077-1.481l.469-.469a1 1 0 0 1 1.327-.083 7.625 7.625 0 0 0 4.757 1.655 7.652 7.652 0 0 0 7.655-7.656 7.652 7.652 0 0 0-7.655-7.655 7.63 7.63 0 0 0-5.246 2.077l2.112 2.112a.666.666 0 0 1-.47 1.136H.664A.666.666 0 0 1 0 11.307V5.258c0-.593.717-.89 1.136-.47l2.055 2.054a10.283 10.283 0 0 1 7.128-2.858c5.692 0 10.308 4.61 10.318 10.299ZM13.11 17.56l.409-.526a.999.999 0 0 0-.176-1.4l-1.693-1.318V9.975a.999.999 0 0 0-.999-.998h-.665a.999.999 0 0 0-.999.998v5.644l2.722 2.117a.999.999 0 0 0 1.4-.175Z" fill="#000000" fill-rule="evenodd" data-name="history-svgrepo-com"/></svg>