<svg xmlns="http://www.w3.org/2000/svg" width="19.781" height="21.004"><path d="M9.89 1.236c.354-.002.691.15.924.415l7.418 8.345c.201.226.313.519.312.822v6.477a2.475 2.475 0 0 1-2.472 2.473h-3.709v-3.709a2.473 2.473 0 0 0-4.945 0v3.709h-3.71a2.475 2.475 0 0 1-2.472-2.473v-6.477c0-.303.111-.595.313-.822l7.417-8.345c.234-.265.57-.417.924-.415M9.89 0c-.706-.001-1.38.3-1.848.83L.625 9.175A2.473 2.473 0 0 0 0 10.818v6.477a3.709 3.709 0 0 0 3.709 3.71h3.709c.683 0 1.236-.554 1.236-1.237v-3.709a1.236 1.236 0 0 1 2.473 0v3.709c0 .683.553 1.236 1.236 1.236h3.709a3.709 3.709 0 0 0 3.709-3.709v-6.477c0-.606-.222-1.19-.625-1.643L11.738.83A2.462 2.462 0 0 0 9.89 0Z" fill="#cecece" fill-rule="evenodd" data-name="Path 7"/></svg>