<svg xmlns="http://www.w3.org/2000/svg" width="21.164" height="21.164"><path d="M20.005 8.49h-1.122a8.34 8.34 0 0 0-.958-2.27l.806-.809c.218-.218.338-.508.338-.816 0-.308-.12-.6-.338-.817l-1.344-1.343c-.436-.436-1.198-.436-1.632 0l-.84.835a8.351 8.351 0 0 0-2.241-.91v-1.2c0-.637-.51-1.16-1.146-1.16h-1.9C8.99 0 8.49.523 8.49 1.16v1.2a8.374 8.374 0 0 0-2.245.91l-.84-.835c-.436-.437-1.199-.436-1.635 0L2.426 3.776a1.16 1.16 0 0 0-.338.817c0 .308.119.598.337.815l.807.81a8.338 8.338 0 0 0-.958 2.272H1.15C.514 8.49 0 9.003 0 9.638v1.899c0 .637.514 1.138 1.151 1.138h1.123a8.38 8.38 0 0 0 .957 2.275l-.807.812c-.218.218-.338.509-.338.817 0 .309.12.6.338.818l1.345 1.344c.218.218.507.337.815.337.308 0 .598-.12.817-.337l.844-.836c.69.402 1.432.711 2.245.91v1.2c0 .636.501 1.15 1.138 1.15h1.9c.637 0 1.146-.514 1.146-1.15v-1.2a8.356 8.356 0 0 0 2.241-.91l.837.834c.218.219.508.338.817.338.308 0 .599-.12.817-.337l1.344-1.343a1.15 1.15 0 0 0 .338-.816c0-.308-.12-.598-.338-.816l-.806-.815a8.413 8.413 0 0 0 .958-2.275h1.122c.637 0 1.16-.5 1.16-1.138v-1.9c0-.634-.522-1.146-1.159-1.146Zm-9.427 5.713c-2.016 0-3.65-1.62-3.65-3.615 0-1.997 1.634-3.614 3.65-3.614s3.65 1.617 3.65 3.614c0 1.996-1.634 3.615-3.65 3.615Z" fill="#000000" fill-rule="evenodd" data-name="Path 37869"/></svg>