<svg xmlns="http://www.w3.org/2000/svg" width="17.996" height="17.996" viewBox="-1.941 5.002 17.996 17.996"><g data-name="XMLID_86_"><path d="M11.725 13.422A.818.818 0 0 0 10.33 14v3.272H-1.123a.818.818 0 0 0 0 1.636H10.33v3.272a.818.818 0 0 0 1.396.578l4.09-4.09a.818.818 0 0 0 0-1.157l-4.09-4.09Z" fill="#96a0c2" fill-rule="evenodd" data-name="XMLID_89_"/><path d="M2.389 14.578A.818.818 0 0 0 3.785 14v-3.272h11.452a.818.818 0 0 0 0-1.636H3.785V5.82a.818.818 0 0 0-1.396-.578l-4.09 4.09a.818.818 0 0 0 0 1.156l4.09 4.09Z" fill="#cecece" fill-rule="evenodd" data-name="XMLID_87_"/></g></svg>