<svg xmlns="http://www.w3.org/2000/svg" width="20.408" height="23.066" viewBox="0 0 20.408 23.066"><path d="M30.4,23.066a.9.9,0,0,1-.9-.9,8.208,8.208,0,0,1,8.2-8.2h1.352a8.183,8.183,0,0,1,2.7.455.9.9,0,0,1-.593,1.7,6.386,6.386,0,0,0-2.107-.355H37.7a6.4,6.4,0,0,0-6.4,6.4A.9.9,0,0,1,30.4,23.066ZM44.367,6.082a6.082,6.082,0,1,0-6.082,6.082A6.089,6.089,0,0,0,44.367,6.082Zm-1.8,0a4.28,4.28,0,1,1-4.28-4.28A4.285,4.285,0,0,1,42.565,6.082ZM49.007,17.66H46.3v-2.7a.9.9,0,1,0-1.8,0v2.7H41.8a.9.9,0,0,0,0,1.8h2.7v2.7a.9.9,0,1,0,1.8,0v-2.7h2.7a.9.9,0,1,0,0-1.8Z" transform="translate(-29.5)" fill="#fff"/></svg>