<svg xmlns="http://www.w3.org/2000/svg" width="21.413" height="21.413" viewBox="0 0 21.413 21.413"><path d="M75.186,5.97a6.724,6.724,0,0,1,9.263-.291.449.449,0,0,0,.606-.019l2.183-2.183a.443.443,0,0,0-.012-.639,10.691,10.691,0,0,0-14.846.325,12.146,12.146,0,0,0,.036,2.8S73.991,7.175,75.186,5.97Z" transform="translate(-69.258 0)" fill="#fff"/><path d="M100.348,47.008a6.724,6.724,0,0,1,9.263-.291.449.449,0,0,0,.606-.019l1.252-1.252c-.109-.084-.217-.173-.322-.266a9.057,9.057,0,0,0-6.116-2.342A8.875,8.875,0,0,0,98.8,45.461,5.6,5.6,0,0,0,98.559,47S98.763,46.985,100.348,47.008Z" transform="translate(-94.421 -41.039)" fill="#fff"/><path d="M3.97,82.822a6.717,6.717,0,0,0,1.994,4.846l-.955,2.061-1.852.745A10.691,10.691,0,0,1,3.121,75.34l2.806,2.806A6.712,6.712,0,0,0,3.97,82.822Z" transform="translate(0 -72.177)" fill="#fff"/><path d="M45.014,111.553a6.718,6.718,0,0,0,1.994,4.846l-1.535,1.535a8.923,8.923,0,0,1-.049-12.6l1.547,1.547A6.712,6.712,0,0,0,45.014,111.553Z" transform="translate(-41.044 -100.908)" fill="#fff"/><path d="M87.494,368.955A6.75,6.75,0,0,1,78,368.949L75.2,371.756a10.638,10.638,0,0,0,15.071-.028l-.8-1.715Z" transform="translate(-72.039 -353.458)" fill="#fff"/><path d="M116.516,368.955a6.749,6.749,0,0,1-9.49-.006l-1.535,1.535a8.906,8.906,0,0,0,12.555,0Z" transform="translate(-101.061 -353.458)" fill="#fff"/><path d="M266.073,220.091a.382.382,0,0,0-.382-.382h-9.966a.342.342,0,0,0-.342.342v3.3a.342.342,0,0,0,.342.342h4.867a.646.646,0,0,1,.555.977,6.709,6.709,0,0,1-1.028,1.311l0,0,2.774,2.774q.2-.2.4-.393a10.808,10.808,0,0,0,2.787-7.253Z" transform="translate(-244.66 -210.484)" fill="#fff"/><path d="M263.826,266.905a1.828,1.828,0,0,0-1.733-2.405h-6.709v1.757a.342.342,0,0,0,.342.342h4.867a.646.646,0,0,1,.555.977,6.715,6.715,0,0,1-1.024,1.307l-.008.008,1.529,1.529a8.912,8.912,0,0,0,1.925-2.839Q263.711,267.249,263.826,266.905Z" transform="translate(-244.661 -253.395)" fill="#fff"/></svg>