<svg xmlns="http://www.w3.org/2000/svg" width="26.168" height="18.114" viewBox="0 0 26.168 18.114"><g transform="translate(0 0)"><path d="M16.081,25.112a13.825,13.825,0,0,0,13.02-8.7,1.006,1.006,0,0,0,0-.7A13.825,13.825,0,0,0,16.081,7,13.825,13.825,0,0,0,3.06,15.7a1.006,1.006,0,0,0,0,.7A13.825,13.825,0,0,0,16.081,25.112Zm10.988-9.056A11.843,11.843,0,0,1,16.081,23.1,11.843,11.843,0,0,1,5.093,16.056,11.843,11.843,0,0,1,16.081,9.012,11.843,11.843,0,0,1,27.069,16.056Z" transform="translate(-2.997 -6.999)" fill="#ec3868"/><ellipse cx="4.766" cy="4.767" rx="4.766" ry="4.767" transform="translate(8.318 4.029)" fill="#ec3868"/></g></svg>