<svg xmlns="http://www.w3.org/2000/svg" xmlns:xlink="http://www.w3.org/1999/xlink" width="675" height="677" viewBox="0 0 675 677"><defs><filter id="a" x="0" y="0" width="675" height="677" filterUnits="userSpaceOnUse"><feOffset dy="30" input="SourceAlpha"/><feGaussianBlur stdDeviation="30" result="b"/><feFlood floodOpacity="0.071"/><feComposite operator="in" in2="b"/><feComposite in="SourceGraphic"/></filter><linearGradient id="c" x1="0.5" y1="-0.013" x2="0.5" y2="1" gradientUnits="objectBoundingBox"><stop offset="0" stop-color="#fff"/><stop offset="0.004" stop-color="#c437e7"/><stop offset="1" stop-color="#662edc"/></linearGradient><filter id="d" x="174.974" y="163.907" width="325.956" height="261.674" filterUnits="userSpaceOnUse"><feOffset input="SourceAlpha"/><feGaussianBlur stdDeviation="25" result="e"/><feFlood floodColor="#b342dc" floodOpacity="0.769"/><feComposite operator="in" in2="e"/><feComposite in="SourceGraphic"/></filter><filter id="f" x="174.974" y="201.137" width="325.956" height="261.643" filterUnits="userSpaceOnUse"><feOffset input="SourceAlpha"/><feGaussianBlur stdDeviation="25" result="g"/><feFlood floodColor="#b342dc" floodOpacity="0.769"/><feComposite operator="in" in2="g"/><feComposite in="SourceGraphic"/></filter></defs><g transform="translate(89.98 59.94)"><g transform="matrix(1, 0, 0, 1, -89.98, -59.94)" filter="url(#a)"><rect width="495" height="497" rx="51" transform="translate(90 60)" fill="#302c84"/></g><rect width="449" height="451" rx="35" transform="translate(23.02 23.06)" fill="url(#c)"/><g transform="translate(50.327 39.395)"><g transform="translate(371.411 6.125)"><g transform="translate(0 0)" fill="none"><path d="M2.281,0H18.495a2.281,2.281,0,0,1,2.281,2.281V8.422A2.281,2.281,0,0,1,18.495,10.7H2.281A2.281,2.281,0,0,1,0,8.422V2.281A2.281,2.281,0,0,1,2.281,0Z" stroke="none"/><path d="M 2.281063079833984 1.000003814697266 C 1.574682235717773 1.000003814697266 1.000001907348633 1.574684143066406 1.000001907348633 2.281064033508301 L 1.000001907348633 8.421704292297363 C 1.000001907348633 9.128084182739258 1.574682235717773 9.702764511108398 2.281063079833984 9.702764511108398 L 18.49488258361816 9.702764511108398 C 19.20126342773438 9.702764511108398 19.77594375610352 9.128084182739258 19.77594375610352 8.421704292297363 L 19.77594375610352 2.281064033508301 C 19.77594375610352 1.574684143066406 19.20126342773438 1.000003814697266 18.49488258361816 1.000003814697266 L 2.281063079833984 1.000003814697266 M 2.281063079833984 3.814697265625e-06 L 18.49488258361816 3.814697265625e-06 C 19.75467300415039 3.814697265625e-06 20.77594375610352 1.02126407623291 20.77594375610352 2.281064033508301 L 20.77594375610352 8.421704292297363 C 20.77594375610352 9.681504249572754 19.75467300415039 10.7027645111084 18.49488258361816 10.7027645111084 L 2.281063079833984 10.7027645111084 C 1.021263122558594 10.7027645111084 1.9073486328125e-06 9.681504249572754 1.9073486328125e-06 8.421704292297363 L 1.9073486328125e-06 2.281064033508301 C 1.9073486328125e-06 1.02126407623291 1.021263122558594 3.814697265625e-06 2.281063079833984 3.814697265625e-06 Z" stroke="none" fill="#fff"/></g><path d="M0,0V3.777A2.049,2.049,0,0,0,1.254,1.889,2.049,2.049,0,0,0,0,0" transform="translate(21.72 3.463)" fill="#fff"/><rect width="3.312" height="6.925" rx="1.333" transform="translate(1.889 1.889)" fill="#fff"/></g><path d="M7.212,10.355A.3.3,0,0,1,7,10.268l-1.887-1.9a.3.3,0,0,1,.009-.431,3.23,3.23,0,0,1,4.173,0,.294.294,0,0,1,.1.213.3.3,0,0,1-.088.218l-1.887,1.9A.291.291,0,0,1,7.212,10.355Zm3.313-3.341a.294.294,0,0,1-.2-.08,4.631,4.631,0,0,0-6.219,0,.294.294,0,0,1-.2.08.29.29,0,0,1-.207-.086L2.6,5.827a.3.3,0,0,1,0-.433,6.76,6.76,0,0,1,9.21,0,.3.3,0,0,1,.093.216.308.308,0,0,1-.088.218l-1.09,1.1A.292.292,0,0,1,10.524,7.015Zm2.512-2.536a.288.288,0,0,1-.2-.082,8.159,8.159,0,0,0-11.245,0,.291.291,0,0,1-.41,0L.088,3.292a.3.3,0,0,1,0-.431,10.292,10.292,0,0,1,14.241,0,.307.307,0,0,1,.09.215.3.3,0,0,1-.088.216l-1.091,1.1A.289.289,0,0,1,13.036,4.479Z" transform="translate(352.234 6.122)" fill="#fff"/><path d="M15.11,10.073h-.944a.945.945,0,0,1-.944-.944V.944A.945.945,0,0,1,14.166,0h.944a.945.945,0,0,1,.944.944V9.129A.945.945,0,0,1,15.11,10.073Zm-4.407,0H9.758a.945.945,0,0,1-.944-.944V3.148A.945.945,0,0,1,9.758,2.2H10.7a.945.945,0,0,1,.944.944V9.129A.945.945,0,0,1,10.7,10.073Zm-4.408,0H5.351a.945.945,0,0,1-.944-.944V5.351a.945.945,0,0,1,.944-.944H6.3a.946.946,0,0,1,.945.944V9.129A.946.946,0,0,1,6.3,10.073Zm-4.407,0H.944A.945.945,0,0,1,0,9.129V7.241A.946.946,0,0,1,.944,6.3h.944a.946.946,0,0,1,.944.945V9.129A.945.945,0,0,1,1.889,10.073Z" transform="translate(331.433 6.44)" fill="#fff"/><text transform="translate(15 16)" fill="#fff" font-size="15" font-family="Poppins-Regular, Poppins" letter-spacing="-0.02em"><tspan x="-14.88" y="0">0:25</tspan></text></g><g transform="translate(91.406 96.836)"><g transform="translate(68.588 82.13)"><g transform="translate(0 0)"><g transform="matrix(1, 0, 0, 1, -249.97, -238.91)" filter="url(#d)"><path d="M151.122,19.472,129.935,30.266,27.626,82.377a60.939,60.939,0,0,1,90.145-61.089L129.9,15.109l1.809-.923A74.444,74.444,0,0,0,13.534,74.442q0,2.844.216,5.665A13.541,13.541,0,0,1,6.395,93.194L0,96.455v15.209l18.827-9.6h0l6.1-3.112,6.008-3.06h0L138.786,40.942l12.12-6.171L175.956,22V6.8Z" transform="translate(249.97 238.92)" fill="#4021b0"/></g><g transform="matrix(1, 0, 0, 1, -249.97, -238.91)" filter="url(#f)"><path d="M175.956,50l-138.9,70.722-12.12,6.186L0,139.616V154.81l24.768-12.618L45.954,131.4,148.367,79.212a62.126,62.126,0,0,1,.521,8.01,60.948,60.948,0,0,1-90.755,53.123l-.744.395-13.147,6.7a74.444,74.444,0,0,0,118.18-60.218c0-1.913-.074-3.826-.216-5.717a13.549,13.549,0,0,1,7.348-13.087l6.4-3.261Z" transform="translate(249.97 226.14)" fill="#4021b0"/></g></g></g><g transform="translate(33.614 33.224)" fill="none" stroke="#dd91f9" strokeWidth="1" stroke-dasharray="10 10" opacity="0.8"><circle cx="123" cy="123" r="123" stroke="none"/><circle cx="123" cy="123" r="122.5" fill="none"/></g><g transform="translate(14.614 14.224)" fill="none" stroke="#cd4bfd" strokeWidth="4" opacity="0.8"><circle cx="142" cy="142" r="142" stroke="none"/><circle cx="142" cy="142" r="140" fill="none"/></g><g transform="translate(-0.386 0.224)" fill="none" stroke="#dd91f9" strokeWidth="1" stroke-dasharray="10 10" opacity="0.8"><ellipse cx="157" cy="156.5" rx="157" ry="156.5" stroke="none"/><ellipse cx="157" cy="156.5" rx="156.5" ry="156" fill="none"/></g></g></g></svg>