<svg xmlns="http://www.w3.org/2000/svg" width="19.781" height="21.004" viewBox="0 0 19.781 21.004"><path d="M13.89,4.247a1.221,1.221,0,0,1,.924.415l7.418,8.345a1.235,1.235,0,0,1,.312.821v6.478a2.475,2.475,0,0,1-2.473,2.473H16.363V19.069a2.473,2.473,0,0,0-4.945,0v3.709H7.709a2.475,2.475,0,0,1-2.473-2.473V13.828a1.235,1.235,0,0,1,.312-.821l7.418-8.345a1.221,1.221,0,0,1,.924-.415m0-1.236a2.462,2.462,0,0,0-1.848.83L4.625,12.185A2.473,2.473,0,0,0,4,13.828v6.478a3.709,3.709,0,0,0,3.709,3.709h3.709a1.236,1.236,0,0,0,1.236-1.236V19.069a1.236,1.236,0,0,1,2.473,0v3.709a1.236,1.236,0,0,0,1.236,1.236h3.709a3.709,3.709,0,0,0,3.709-3.709V13.828a2.473,2.473,0,0,0-.625-1.643L15.738,3.84A2.462,2.462,0,0,0,13.89,3.01Z" transform="translate(-4 -3.01)" fill="#fff"/><path d="M7.6,19.744,7.779,15.4,8.7,13.914h1.343l1.248.743.285,1.438v3.65l1.058.379H17.4L18.4,18.78l.459-1.707V11.149L18.4,9.395,13.483,4.07,10.56.91,9.154.657,7.6,1.811l-4.25,5.2L.8,9.853.543,12.239v4.092L.8,18.069,2.06,19.491l1.3.632Z" transform="translate(0.207 0.251)" fill="#fff"/></svg>