<svg xmlns="http://www.w3.org/2000/svg" width="16.138" height="22.103" viewBox="0 0 16.138 22.103"><g transform="translate(0)"><path d="M172.562,296.177a.648.648,0,0,1-.648-.648v-2.683a.648.648,0,0,1,1.3,0v2.683A.648.648,0,0,1,172.562,296.177Zm0,0" transform="translate(-164.492 -279.585)" fill="#fff"/><path d="M.647,7.1H3.712V3.948A4.172,4.172,0,0,1,8.069,0a4.172,4.172,0,0,1,4.357,3.948V7.1h3.065a.648.648,0,0,1,.648.648v8.281A6.078,6.078,0,0,1,10.067,22.1h-4A6.078,6.078,0,0,1,0,16.032V7.75A.648.648,0,0,1,.647,7.1ZM11.131,3.948A2.883,2.883,0,0,0,8.069,1.295,2.883,2.883,0,0,0,5.007,3.948V7.1h6.123ZM1.3,16.032a4.782,4.782,0,0,0,4.776,4.776h4a4.782,4.782,0,0,0,4.776-4.776V8.4H1.3Zm0,0" transform="translate(0 0)" fill="#fff"/></g></svg>