<svg xmlns="http://www.w3.org/2000/svg" width="54.091" height="52.288" viewBox="0 0 54.091 52.288"><ellipse cx="27.046" cy="26.144" rx="27.046" ry="26.144" transform="translate(0 0)" fill="#e3e3e3"/><path d="M148.3,146.135a6.96,6.96,0,0,1-2.325.71,4.76,4.76,0,0,0,1.746-2.45,6.483,6.483,0,0,1-2.613,1,0,0,0,0,0,0,0A4.042,4.042,0,0,0,142.084,144a4.359,4.359,0,0,0-4.189,4.511,4.778,4.778,0,0,0,.108,1.005h0a11.782,11.782,0,0,1-8.873-4.68,4.724,4.724,0,0,0,1.27,5.96,2.552,2.552,0,0,1-1.829-.508A4.313,4.313,0,0,0,131.8,154.7a3.059,3.059,0,0,1-1.744.141A4.032,4.032,0,0,0,133.8,157.9a6.569,6.569,0,0,1-5.8,1.872,11.915,11.915,0,0,0,6.552,2c6.758,0,12.007-5.9,11.724-13.174,0-.009,0-.017,0-.025s0-.04,0-.057,0-.045,0-.068A7.544,7.544,0,0,0,148.3,146.135Z" transform="translate(-111.106 -127.448)"/></svg>