<svg xmlns="http://www.w3.org/2000/svg" width="14.266" height="18.539" viewBox="0 0 14.266 18.539"><g transform="translate(0 11.225)"><path d="M72.542,317.314a.724.724,0,0,1-.724-.724,5.148,5.148,0,0,0-5.142-5.142H65.59a5.148,5.148,0,0,0-5.142,5.142.724.724,0,0,1-1.448,0A6.6,6.6,0,0,1,65.59,310h1.086a6.6,6.6,0,0,1,6.59,6.59A.724.724,0,0,1,72.542,317.314Z" transform="translate(-59 -310)" fill="#fff"/></g><g transform="translate(2.173)"><path d="M123.888,9.777a4.888,4.888,0,1,1,4.888-4.888A4.894,4.894,0,0,1,123.888,9.777Zm0-8.328a3.44,3.44,0,1,0,3.44,3.44A3.444,3.444,0,0,0,123.888,1.448Z" transform="translate(-119)" fill="#fff"/></g></svg>